<?xml version="1.0" standalone="no"?>
<!DOCTYPE svg PUBLIC "-//W3C//DTD SVG 20010904//EN"
 "http://www.w3.org/TR/2001/REC-SVG-20010904/DTD/svg10.dtd">
<svg version="1.0" xmlns="http://www.w3.org/2000/svg"
 width="235.000000pt" height="245.000000pt" viewBox="0 0 235.000000 245.000000"
 preserveAspectRatio="xMidYMid meet">

<g transform="translate(0.000000,245.000000) scale(0.100000,-0.100000)"
fill="#000000" stroke="none">
<path d="M2014 2207 c-17 -18 -62 -49 -102 -70 -39 -21 -85 -54 -102 -75 -28
-32 -31 -34 -25 -12 10 35 44 70 90 92 35 17 36 18 10 13 -50 -11 -89 -39
-108 -78 l-19 -37 34 -39 c19 -23 42 -40 56 -40 64 -3 138 77 183 197 10 27
10 27 -24 -6 -19 -18 -38 -32 -43 -30 -11 3 -89 -46 -126 -81 -34 -30 -45 -23
-18 11 20 26 121 88 148 92 12 2 91 96 80 96 -1 0 -17 -15 -34 -33z"/>
<path d="M1148 1516 l-225 -214 -27 21 c-50 40 -41 137 14 167 12 6 20 21 20
35 0 20 -5 25 -24 25 -63 0 -131 -54 -177 -141 -64 -120 -128 -172 -263 -213
-101 -32 -159 -67 -196 -122 -40 -58 -47 -100 -26 -165 25 -74 74 -146 163
-240 117 -123 197 -153 290 -108 59 29 88 67 150 199 54 114 85 160 108 160
22 0 150 69 172 92 12 13 25 35 28 50 9 36 -12 45 -54 24 -53 -28 -100 -16
-139 34 l-20 25 136 115 c75 63 198 168 274 233 l138 118 -52 59 c-29 33 -55
60 -58 60 -4 0 -108 -96 -232 -214z m252 185 c0 -7 -468 -439 -660 -608 -19
-17 -32 -34 -29 -38 4 -3 161 133 349 302 304 274 381 338 369 305 -2 -5 -158
-148 -346 -317 -189 -169 -343 -312 -343 -318 0 -13 -12 -23 374 317 193 170
342 294 344 287 2 -7 -2 -19 -9 -25 -20 -18 -683 -599 -687 -602 -2 -1 2 -11
10 -23 18 -29 -3 -51 -32 -33 -28 17 -32 15 -18 -8 11 -16 10 -23 -5 -37 -15
-15 -20 -16 -38 -5 -19 12 -24 10 -48 -13 l-28 -26 -46 50 c-26 28 -47 54 -47
58 0 4 7 0 14 -10 13 -17 15 -16 44 8 17 14 29 32 26 39 -5 14 33 53 43 43 3
-4 11 3 17 16 7 12 19 22 28 22 18 0 234 194 230 207 -1 5 1 7 5 5 5 -3 111
89 238 204 126 115 233 209 237 209 4 0 8 -4 8 -9z m-550 -394 c0 -2 -10 -12
-22 -23 l-23 -19 19 23 c18 21 26 27 26 19z m-40 -50 c0 -2 -15 -16 -32 -33
l-33 -29 29 33 c28 30 36 37 36 29z m-120 -87 c-8 -5 -22 -9 -30 -9 -10 0 -8
3 5 9 27 12 43 12 25 0z m-51 -14 c-10 -9 -69 -36 -69 -32 0 7 52 35 64 36 5
0 7 -2 5 -4z m352 -90 c27 -18 61 -21 92 -5 21 10 21 10 3 -5 -35 -28 -74 -20
-117 23 -22 21 -39 45 -39 52 0 8 9 0 19 -17 11 -18 30 -39 42 -48z m-431 51
c0 -2 -10 -12 -22 -23 l-23 -19 19 23 c18 21 26 27 26 19z m577 -43 c-3 -3
-12 -4 -19 -1 -8 3 -5 6 6 6 11 1 17 -2 13 -5z m-630 -46 c-3 -8 -6 -5 -6 6
-1 11 2 17 5 13 3 -3 4 -12 1 -19z m623 9 c0 -2 -10 -12 -22 -23 l-23 -19 19
23 c18 21 26 27 26 19z m-623 -49 c-3 -8 -6 -5 -6 6 -1 11 2 17 5 13 3 -3 4
-12 1 -19z m403 -72 c0 -2 -8 -10 -17 -17 -16 -13 -17 -12 -4 4 13 16 21 21
21 13z m-40 -56 c-6 -11 -13 -20 -16 -20 -2 0 0 9 6 20 6 11 13 20 16 20 2 0
0 -9 -6 -20z m-171 -109 c0 -10 -4 -7 -10 8 -5 14 -13 30 -17 36 -4 6 1 2 11
-8 9 -11 17 -27 16 -36z m122 2 c-12 -20 -14 -14 -5 12 4 9 9 14 11 11 3 -2 0
-13 -6 -23z m-163 -23 c18 -36 8 -118 -18 -144 l-21 -21 -20 24 c-13 16 -19
39 -19 75 0 85 46 125 78 66z m55 -50 c3 -11 1 -18 -4 -14 -5 3 -9 12 -9 20 0
20 7 17 13 -6z"/>
<path d="M690 984 c0 -8 5 -12 10 -9 6 4 8 11 5 16 -9 14 -15 11 -15 -7z"/>
<path d="M580 945 c-13 -14 -21 -27 -18 -30 2 -3 17 9 33 25 16 17 24 30 19
30 -6 0 -21 -11 -34 -25z"/>
<path d="M606 917 c-16 -13 -25 -27 -19 -30 5 -3 23 7 38 23 34 36 22 40 -19
7z"/>
<path d="M1065 749 c-93 -29 -142 -146 -101 -243 36 -85 165 -123 251 -74 39
23 40 25 43 86 l3 62 -36 0 c-35 0 -35 0 -35 -45 0 -40 -3 -47 -27 -56 -105
-40 -194 102 -114 182 24 23 38 29 73 29 24 0 53 -7 65 -15 21 -15 23 -14 40
11 16 25 16 27 -2 40 -41 30 -106 40 -160 23z"/>
<path d="M1383 746 c-39 -18 -53 -43 -53 -94 0 -50 22 -71 103 -97 54 -17 62
-24 65 -47 3 -22 -2 -29 -22 -34 -29 -7 -89 11 -107 32 -11 13 -15 11 -35 -13
l-22 -28 37 -25 c30 -21 48 -25 103 -25 60 0 71 3 94 27 20 20 27 36 27 68 0
54 -22 76 -104 104 -49 17 -65 27 -67 43 -5 31 25 44 74 32 61 -16 65 -15 81
8 14 20 13 23 -17 38 -45 23 -119 28 -157 11z"/>
</g>
</svg>